<?xml version="1.0" encoding="utf-8"?>
<!-- Generator: Adobe Illustrator 27.1.1, SVG Export Plug-In . SVG Version: 6.00 Build 0)  -->
<svg version="1.1" id="Layer_1" xmlns="http://www.w3.org/2000/svg" xmlns:xlink="http://www.w3.org/1999/xlink" x="0px" y="0px"
	 viewBox="0 0 450.6 155.7" style="enable-background:new 0 0 450.6 155.7;" xml:space="preserve">
<g>
	<g>
		<path d="M5.7,151.9V103h9.4c7,0,11.8,0.3,14.7,1.1c2.8,0.7,5.3,1.9,7.5,3.5c2.8,2.2,4.9,4.9,6.4,8.3s2.2,7.2,2.2,11.6
			c0,4.4-0.7,8.2-2.2,11.6c-1.4,3.4-3.6,6.1-6.4,8.3c-2.1,1.6-4.6,2.8-7.3,3.5s-7,1.1-12.7,1.1h-2.1L5.7,151.9L5.7,151.9z
			 M11.6,146.4h3.7c6,0,10.2-0.3,12.5-0.8s4.2-1.4,5.8-2.7c2-1.7,3.5-3.8,4.6-6.5s1.6-5.7,1.6-9.1c0-3.4-0.5-6.4-1.5-9
			c-1-2.6-2.6-4.7-4.6-6.4c-1.5-1.3-3.5-2.2-5.9-2.8s-6.5-0.8-12.4-0.8h-3.7L11.6,146.4L11.6,146.4z"/>
		<path d="M55.1,103H61v30.4c0,4.9,1,8.6,3.2,10.9c2.1,2.3,5.4,3.5,9.9,3.5s7.8-1.2,9.9-3.5c2.1-2.3,3.2-5.9,3.2-10.9V103H93v30.4
			c0,6.6-1.6,11.6-4.7,14.8c-3.2,3.3-7.9,4.9-14.2,4.9c-6.3,0-11.1-1.6-14.2-4.9c-3.2-3.3-4.7-8.2-4.7-14.8L55.1,103L55.1,103z"/>
		<path d="M104.6,151.9V101l35.8,39.1V103h5.5v50.8l-35.8-38.6v36.7L104.6,151.9L104.6,151.9z"/>
		<path d="M173,101l22.2,50.8H189l-6.4-15h-19.1l-6.4,15h-6.3L173,101z M173,113.9l-7.8,18h15.6L173,113.9z"/>
		<path d="M226.2,129.9v21.9h-5.7V103h10.2c3.6,0,6.2,0.2,7.9,0.6s3.2,1,4.4,1.9c1.6,1.1,2.8,2.6,3.7,4.6c0.9,1.9,1.3,4.1,1.3,6.4
			c0,2.4-0.4,4.5-1.3,6.4c-0.9,1.9-2.1,3.5-3.7,4.6c-1.2,0.9-2.7,1.5-4.4,1.9c-1.7,0.4-4.3,0.6-7.9,0.6h-1.6H226.2z M226.2,124.7
			h2.9c5,0,8.3-0.6,10.1-1.8c1.7-1.2,2.6-3.2,2.6-6.1c0-3.1-0.9-5.3-2.7-6.6c-1.8-1.3-5.1-1.9-10-1.9h-2.9L226.2,124.7L226.2,124.7z
			"/>
		<path d="M305.2,127.5c0,3.5-0.6,6.8-1.9,9.9c-1.3,3.1-3.2,5.8-5.6,8.2c-2.5,2.4-5.3,4.3-8.5,5.6s-6.6,1.9-10,1.9s-6.8-0.6-10-1.9
			c-3.2-1.3-6-3.2-8.5-5.6c-2.5-2.4-4.4-5.2-5.7-8.3c-1.3-3.1-1.9-6.4-1.9-9.8c0-3.5,0.6-6.8,1.9-9.9c1.3-3.1,3.2-5.9,5.7-8.3
			c2.5-2.4,5.3-4.2,8.5-5.5s6.5-1.9,10-1.9c3.5,0,6.8,0.7,10,1.9s6,3.1,8.5,5.5c2.5,2.4,4.4,5.2,5.6,8.3
			C304.6,120.7,305.2,124,305.2,127.5z M279.1,147.7c2.7,0,5.2-0.5,7.6-1.5c2.4-1,4.6-2.5,6.5-4.4c1.9-1.9,3.4-4.1,4.4-6.5
			c1-2.4,1.5-5,1.5-7.7c0-2.7-0.5-5.3-1.5-7.8c-1-2.5-2.5-4.7-4.4-6.6c-1.9-1.9-4.1-3.4-6.5-4.4s-5-1.5-7.7-1.5
			c-2.7,0-5.3,0.5-7.7,1.5s-4.6,2.5-6.5,4.4c-1.9,1.9-3.4,4.1-4.4,6.6c-1,2.4-1.5,5-1.5,7.8c0,2.7,0.5,5.3,1.5,7.7s2.5,4.6,4.4,6.6
			c2,2,4.1,3.4,6.5,4.4C273.9,147.2,276.4,147.7,279.1,147.7z"/>
		<path d="M308.4,103h6.3l12.4,36l12.9-37.9L353,139l12.5-36h6.3l-18.9,50.8L340.1,116l-12.7,37.8L308.4,103z"/>
		<path d="M377.2,151.9V103H403v5.3h-20v14h20v5.4h-20v18.7h20v5.4L377.2,151.9L377.2,151.9z"/>
		<path d="M412.8,151.9V103h11.5c3.3,0,5.7,0.2,7.2,0.6c1.5,0.4,2.9,1,4,1.9c1.5,1.1,2.6,2.7,3.4,4.6c0.8,1.9,1.2,4,1.2,6.3
			c0,4-1.1,7.1-3.4,9.1c-2.2,2.1-5.5,3.1-9.8,3.1h-1l18.7,23.3h-7.4l-17.8-23.3h-0.8v23.3H412.8z M418.5,107.9v16.4h4.4
			c4.5,0,7.6-0.6,9.1-1.8s2.3-3.2,2.3-6.1c0-3.1-0.8-5.3-2.4-6.6c-1.6-1.3-4.6-1.9-9-1.9L418.5,107.9L418.5,107.9z"/>
	</g>
</g>
<g>
	<g>
		<path d="M122.3,35.2C66.5,61.9,0,95.6,0,95.6h352c0,0-118.4-16.2-180.7-35.9c-50.8-16.1,19.9-50.1,27.2-48.7
			c27.4,5.4,60.4,27,116.8,56.7c84.6,44.5,20.4-48.2,20.4-48.2l108.7,66.8c0,0-109.9-79.8-114.1-82.2c-4.3-2.5-45.6,27.7-45.6,27.7
			s15.4,5.3,36.5,32.9c0,0-97.3-58.6-124.5-61.5c-4.6-0.5-35.3,13.3-71,30.4"/>
	</g>
</g>
</svg>
