<?xml version="1.0" encoding="utf-8"?>
<!-- Generator: Adobe Illustrator 27.1.1, SVG Export Plug-In . SVG Version: 6.00 Build 0)  -->
<svg version="1.1" id="Layer_1" xmlns="http://www.w3.org/2000/svg" xmlns:xlink="http://www.w3.org/1999/xlink" x="0px" y="0px"
	 viewBox="0 0 450.56 155.67" style="enable-background:new 0 0 450.56 155.67;" xml:space="preserve">
<style type="text/css">
	.st0{fill:#010101;}
	.st1{fill:url(#SVGID_1_);}
</style>
<g>
	<path class="st0" d="M8.24,150.69v-48.8h9.37c6.93,0,11.82,0.35,14.65,1.05c2.83,0.7,5.32,1.87,7.45,3.52
		c2.8,2.16,4.92,4.91,6.37,8.27c1.44,3.36,2.17,7.22,2.17,11.6c0,4.36-0.72,8.21-2.15,11.55c-1.43,3.34-3.56,6.09-6.38,8.25
		c-2.13,1.65-4.56,2.82-7.28,3.52c-2.72,0.7-6.96,1.05-12.72,1.05h-2.1H8.24z M14.1,145.23h3.7c6,0,10.16-0.26,12.47-0.78
		c2.31-0.52,4.23-1.42,5.77-2.68c2-1.67,3.52-3.82,4.57-6.45c1.04-2.63,1.57-5.65,1.57-9.05c0-3.42-0.52-6.43-1.55-9.02
		c-1.03-2.59-2.56-4.73-4.58-6.42c-1.53-1.29-3.48-2.21-5.85-2.75s-6.49-0.82-12.38-0.82h-3.7V145.23z"/>
	<path class="st0" d="M57.54,101.89h5.87v30.37c0,4.93,1.05,8.56,3.15,10.87c2.1,2.31,5.39,3.47,9.88,3.47s7.78-1.16,9.88-3.47
		c2.1-2.31,3.15-5.93,3.15-10.87v-30.37h5.9v30.37c0,6.6-1.57,11.54-4.72,14.82c-3.15,3.28-7.88,4.92-14.22,4.92
		c-6.31,0-11.04-1.64-14.18-4.92c-3.14-3.28-4.72-8.22-4.72-14.82V101.89z"/>
	<path class="st0" d="M106.9,150.69V99.96l35.7,39v-37.07h5.53v50.7l-35.7-38.57v36.67H106.9z"/>
	<path class="st0" d="M175.24,99.96l22.2,50.73h-6.3l-6.33-14.97h-19.07l-6.33,14.97h-6.3L175.24,99.96z M175.24,112.79l-7.77,17.97
		h15.53L175.24,112.79z"/>
	<path class="st0" d="M228.27,128.79v21.9h-5.67v-48.8h10.23c3.58,0,6.21,0.19,7.9,0.57c1.69,0.38,3.16,1,4.4,1.87
		c1.56,1.11,2.77,2.63,3.65,4.57c0.88,1.93,1.32,4.08,1.32,6.43c0,2.36-0.44,4.5-1.32,6.43c-0.88,1.93-2.09,3.46-3.65,4.57
		c-1.24,0.89-2.71,1.52-4.38,1.9c-1.68,0.38-4.32,0.57-7.92,0.57h-1.63H228.27z M228.27,123.53h2.93c4.98,0,8.33-0.58,10.05-1.75
		c1.72-1.17,2.58-3.21,2.58-6.12c0-3.11-0.88-5.3-2.65-6.57c-1.77-1.27-5.09-1.9-9.98-1.9h-2.93V123.53z"/>
	<path class="st0" d="M307.21,126.39c0,3.49-0.65,6.78-1.94,9.87c-1.29,3.09-3.17,5.83-5.64,8.23c-2.47,2.4-5.31,4.25-8.52,5.55
		c-3.21,1.3-6.54,1.95-9.99,1.95c-3.45,0-6.77-0.65-9.96-1.95c-3.19-1.3-6.02-3.15-8.49-5.55c-2.49-2.42-4.39-5.18-5.69-8.27
		c-1.3-3.09-1.95-6.37-1.95-9.83c0-3.49,0.65-6.78,1.95-9.88c1.3-3.1,3.2-5.86,5.69-8.28c2.45-2.38,5.27-4.21,8.47-5.5
		c3.2-1.29,6.53-1.93,9.97-1.93c3.47,0,6.81,0.65,10.02,1.93c3.21,1.29,6.04,3.12,8.49,5.5c2.47,2.4,4.35,5.15,5.64,8.25
		C306.56,119.58,307.21,122.88,307.21,126.39z M281.12,146.53c2.67,0,5.21-0.51,7.62-1.52c2.41-1.01,4.59-2.48,6.52-4.42
		c1.91-1.91,3.37-4.08,4.37-6.5c1-2.42,1.5-4.99,1.5-7.7c0-2.73-0.51-5.33-1.52-7.8c-1.01-2.47-2.46-4.64-4.35-6.53
		c-1.91-1.91-4.08-3.37-6.49-4.37c-2.41-1-4.97-1.5-7.66-1.5c-2.71,0-5.28,0.5-7.71,1.5s-4.57,2.46-6.44,4.37
		c-1.91,1.93-3.37,4.12-4.37,6.57c-1,2.44-1.5,5.03-1.5,7.77c0,2.71,0.49,5.27,1.48,7.67c0.99,2.4,2.45,4.58,4.39,6.53
		c1.96,1.96,4.13,3.43,6.52,4.43C275.89,146.03,278.43,146.53,281.12,146.53z"/>
	<path class="st0" d="M310.34,101.89h6.27l12.37,35.9l12.9-37.83l13.03,37.83l12.43-35.9h6.27l-18.9,50.7l-12.77-37.73l-12.7,37.73
		L310.34,101.89z"/>
	<path class="st0" d="M379.01,150.69v-48.8h25.73v5.3h-19.93v14h19.93v5.4h-19.93v18.7h19.93v5.4H379.01z"/>
	<path class="st0" d="M414.58,150.69v-48.8h11.47c3.27,0,5.66,0.18,7.18,0.55c1.52,0.37,2.86,1,4.02,1.88
		c1.44,1.13,2.57,2.65,3.37,4.55c0.8,1.9,1.2,4.01,1.2,6.32c0,4-1.12,7.04-3.35,9.12c-2.23,2.08-5.51,3.12-9.82,3.12h-1.03
		l18.63,23.27h-7.37l-17.8-23.27h-0.83v23.27H414.58z M420.24,106.79v16.33h4.43c4.53,0,7.57-0.58,9.1-1.75
		c1.53-1.17,2.3-3.21,2.3-6.12c0-3.13-0.79-5.33-2.37-6.58c-1.58-1.26-4.59-1.88-9.03-1.88H420.24z"/>
</g>
<g>
	<linearGradient id="SVGID_1_" gradientUnits="userSpaceOnUse" x1="2.5607" y1="48.4254" x2="446.257" y2="48.4254">
		<stop  offset="2.297870e-03" style="stop-color:#BE895D"/>
		<stop  offset="0.6275" style="stop-color:#FECB86"/>
		<stop  offset="0.7051" style="stop-color:#E5B273"/>
		<stop  offset="0.8589" style="stop-color:#BA8249"/>
		<stop  offset="1" style="stop-color:#955B29"/>
	</linearGradient>
	<path class="st1" d="M124.59,34.26C68.91,60.92,2.56,94.56,2.56,94.56h351.4c0,0-118.14-16.12-180.34-35.79
		c-50.73-16.04,19.88-50.04,27.18-48.6c27.31,5.4,60.29,26.99,116.6,56.62c84.44,44.43,20.34-48.13,20.34-48.13L446.26,85.3
		c0,0-109.67-79.61-113.92-82.08c-4.25-2.47-45.47,27.64-45.47,27.64s15.35,5.27,36.4,32.84c0,0-97.16-58.47-124.31-61.4
		c-4.62-0.5-35.21,13.27-70.91,30.31"/>
</g>
</svg>
