<?xml version="1.0" encoding="utf-8"?>
<!-- Generator: Adobe Illustrator 27.1.1, SVG Export Plug-In . SVG Version: 6.00 Build 0)  -->
<svg version="1.1" id="Layer_1" xmlns="http://www.w3.org/2000/svg" xmlns:xlink="http://www.w3.org/1999/xlink" x="0px" y="0px"
	 viewBox="0 0 450.56 155.67" style="enable-background:new 0 0 450.56 155.67;" xml:space="preserve">
<style type="text/css">
	.st0{fill:#F79421;}
</style>
<g>
	<g>
		<path class="st0" d="M5.73,151.87v-48.89h9.38c6.95,0,11.84,0.35,14.68,1.05c2.84,0.7,5.33,1.88,7.46,3.52
			c2.8,2.16,4.93,4.92,6.38,8.28c1.45,3.36,2.17,7.24,2.17,11.62c0,4.36-0.72,8.22-2.15,11.57c-1.44,3.35-3.57,6.11-6.4,8.27
			c-2.14,1.65-4.57,2.82-7.3,3.52c-2.73,0.7-6.97,1.05-12.74,1.05h-2.1H5.73z M11.61,146.39h3.71c6.01,0,10.17-0.26,12.49-0.78
			c2.32-0.52,4.24-1.42,5.78-2.69c2-1.67,3.53-3.82,4.58-6.46c1.05-2.64,1.57-5.66,1.57-9.07c0-3.43-0.52-6.44-1.55-9.03
			c-1.04-2.59-2.57-4.74-4.59-6.43c-1.54-1.29-3.49-2.21-5.86-2.76s-6.51-0.82-12.41-0.82h-3.71V146.39z"/>
		<path class="st0" d="M55.12,102.98H61v30.42c0,4.94,1.05,8.57,3.16,10.89c2.1,2.32,5.4,3.47,9.9,3.47s7.8-1.16,9.9-3.47
			c2.1-2.32,3.16-5.94,3.16-10.89v-30.42h5.91v30.42c0,6.61-1.58,11.56-4.72,14.84c-3.15,3.28-7.9,4.93-14.24,4.93
			c-6.32,0-11.06-1.64-14.21-4.93c-3.15-3.28-4.72-8.23-4.72-14.84V102.98z"/>
		<path class="st0" d="M104.58,151.87v-50.83l35.77,39.07v-37.14h5.54v50.79l-35.77-38.64v36.73H104.58z"/>
		<path class="st0" d="M173.04,101.04l22.24,50.83h-6.31l-6.35-14.99h-19.1l-6.35,14.99h-6.31L173.04,101.04z M173.04,113.9
			l-7.78,18h15.56L173.04,113.9z"/>
		<path class="st0" d="M226.17,129.93v21.94h-5.68v-48.89h10.25c3.58,0,6.22,0.19,7.91,0.57c1.69,0.38,3.16,1,4.41,1.87
			c1.56,1.11,2.78,2.64,3.66,4.57c0.88,1.94,1.32,4.09,1.32,6.45c0,2.36-0.44,4.51-1.32,6.45c-0.88,1.94-2.1,3.46-3.66,4.57
			c-1.25,0.89-2.71,1.53-4.39,1.9c-1.68,0.38-4.32,0.57-7.93,0.57h-1.64H226.17z M226.17,124.65h2.94c4.99,0,8.34-0.58,10.07-1.75
			c1.72-1.17,2.59-3.21,2.59-6.13c0-3.12-0.88-5.31-2.66-6.58c-1.77-1.27-5.1-1.9-10-1.9h-2.94V124.65z"/>
		<path class="st0" d="M305.25,127.52c0,3.5-0.65,6.79-1.94,9.88c-1.29,3.1-3.17,5.84-5.65,8.25c-2.47,2.4-5.32,4.26-8.54,5.56
			c-3.22,1.3-6.56,1.95-10.01,1.95c-3.45,0-6.78-0.65-9.97-1.95c-3.2-1.3-6.03-3.16-8.5-5.56c-2.5-2.43-4.39-5.19-5.7-8.28
			c-1.3-3.09-1.95-6.38-1.95-9.85c0-3.5,0.65-6.8,1.95-9.9c1.3-3.11,3.2-5.87,5.7-8.3c2.45-2.38,5.28-4.22,8.49-5.51
			c3.21-1.29,6.54-1.94,9.99-1.94c3.48,0,6.82,0.65,10.04,1.94c3.22,1.29,6.05,3.13,8.5,5.51c2.47,2.4,4.35,5.16,5.65,8.27
			C304.6,120.69,305.25,124.01,305.25,127.52z M279.12,147.69c2.67,0,5.22-0.51,7.64-1.52c2.42-1.01,4.6-2.49,6.53-4.42
			c1.92-1.91,3.37-4.09,4.38-6.51c1-2.43,1.5-5,1.5-7.71c0-2.74-0.51-5.34-1.52-7.81c-1.01-2.47-2.47-4.65-4.36-6.55
			c-1.92-1.91-4.08-3.37-6.5-4.37c-2.42-1-4.97-1.5-7.67-1.5c-2.72,0-5.29,0.5-7.72,1.5s-4.58,2.46-6.45,4.37
			c-1.92,1.94-3.38,4.13-4.38,6.58c-1,2.45-1.5,5.04-1.5,7.78c0,2.72,0.5,5.28,1.49,7.68c0.99,2.4,2.46,4.59,4.4,6.55
			c1.96,1.96,4.14,3.44,6.53,4.44C273.88,147.19,276.42,147.69,279.12,147.69z"/>
		<path class="st0" d="M308.39,102.98h6.28l12.39,35.97l12.92-37.9l13.06,37.9l12.46-35.97h6.28l-18.93,50.79l-12.79-37.8
			l-12.72,37.8L308.39,102.98z"/>
		<path class="st0" d="M377.18,151.87v-48.89h25.78v5.31h-19.97v14.03h19.97v5.41h-19.97v18.74h19.97v5.41H377.18z"/>
		<path class="st0" d="M412.82,151.87v-48.89h11.49c3.27,0,5.67,0.18,7.2,0.55c1.52,0.37,2.87,1,4.02,1.89
			c1.45,1.14,2.57,2.65,3.37,4.56c0.8,1.9,1.2,4.01,1.2,6.33c0,4.01-1.12,7.05-3.36,9.13c-2.24,2.08-5.52,3.12-9.83,3.12h-1.04
			l18.67,23.31h-7.38l-17.83-23.31h-0.83v23.31H412.82z M418.49,107.89v16.36h4.44c4.54,0,7.58-0.58,9.12-1.75
			c1.54-1.17,2.3-3.21,2.3-6.13c0-3.14-0.79-5.34-2.37-6.6c-1.58-1.26-4.6-1.89-9.05-1.89H418.49z"/>
	</g>
</g>
<g>
	<g>
		<path class="st0" d="M122.3,35.22C66.51,61.93,0.04,95.63,0.04,95.63h352.05c0,0-118.36-16.15-180.67-35.86
			C120.6,43.7,191.34,9.64,198.65,11.09c27.36,5.41,60.4,27.04,116.82,56.72c84.6,44.51,20.38-48.22,20.38-48.22l108.71,66.77
			c0,0-109.87-79.75-114.13-82.23c-4.26-2.48-45.56,27.69-45.56,27.69s15.38,5.28,36.47,32.9c0,0-97.34-58.58-124.54-61.51
			c-4.63-0.5-35.27,13.29-71.04,30.37"/>
	</g>
</g>
</svg>
